<svg xmlns="http://www.w3.org/2000/svg" viewBox="0 -27 60 27">
    <rect fill="#0A0A0A" x="0" y="-27" width="60" height="27" />
	<path d="M5-17A5.831 5.831 0 1115-17L6.1765-2.2941A8.8882 8.8882 0 015-17M16.8431-15.2127A8.8882 8.8882 0 019-2L16.8431-15.2127" fill="#33FF66" />
	<path transform="translate(20, 0)" d="M5-17A5.831 5.831 0 1115-17L6.1765-2.2941A8.8882 8.8882 0 015-17M16.8431-15.2127A8.8882 8.8882 0 019-2L16.8431-15.2127" fill="#33FF66" />
	<path transform="translate(40, 0)" d="M4.7644-3.1745A8.6023 8.6023 0 012.6549-14.4776L9.6288-25.9176 18.6288-25.9176 4.7644-3.1745M6.948-1.9573A8.6023 8.6023 0 0015.7509-16.3974L6.948-1.9573" fill="#33FF66" />
</svg>